<svg aria-hidden="true" style="position: absolute; width: 0; height: 0; overflow: hidden;" version="1.1" xmlns="http://www.w3.org/2000/svg" xmlns:xlink="http://www.w3.org/1999/xlink">
<defs>
<symbol id="icon-envelope" viewBox="0 0 43 32">
<path  d="M38.667 0h-34.667c-2.205 0-4 1.795-4 4v24c0 2.205 1.795 4 4 4h34.667c2.205 0 4-1.795 4-4v-24c0-2.205-1.795-4-4-4zM38.667 2.667c0.181 0 0.355 0.037 0.512 0.104l-17.845 15.467-17.845-15.467c0.151-0.065 0.327-0.104 0.512-0.104h34.667zM38.667 29.333h-34.667c-0.736 0-1.333-0.597-1.333-1.333v0-22.413l17.792 15.421c0.233 0.203 0.539 0.327 0.875 0.327s0.642-0.124 0.876-0.328l-0.002 0.001 17.792-15.421v22.413c0 0.736-0.597 1.333-1.333 1.333v0z"></path>
</symbol>
<symbol id="icon-smartphone" viewBox="0 0 20 32">
<path  d="M17 0h-14c-1.654 0-3 1.346-3 3v26c0 1.654 1.346 3 3 3h14c1.654 0 3-1.346 3-3v-26c0-1.654-1.346-3-3-3zM3 2h14c0.552 0 1 0.448 1 1v0 21h-16v-21c0-0.552 0.448-1 1-1v0zM17 30h-14c-0.552 0-1-0.448-1-1v0-3h16v3c0 0.552-0.448 1-1 1v0z"></path>
<path  d="M4.708 27.478c0.18 0.163 0.293 0.399 0.293 0.66s-0.113 0.497-0.292 0.659l-0.001 0.001c-0.186 0.17-0.435 0.275-0.708 0.275s-0.522-0.104-0.709-0.275l0.001 0.001c-0.18-0.163-0.293-0.399-0.293-0.66s0.113-0.497 0.292-0.659l0.001-0.001c0.186-0.17 0.435-0.275 0.708-0.275s0.522 0.104 0.709 0.275l-0.001-0.001z"></path>
</symbol>
<symbol id="icon-antenna" viewBox="0 0 32 32">
<path fill="#212121" style="fill: var(--color2, #212121)" d="M30.773 22.098l-8.443-8.505 0.937-4.616c0.225 0.090 0.485 0.144 0.758 0.146h0.007c0.008 0 0.017 0 0.026 0 1.192 0 2.159-0.967 2.159-2.159s-0.967-2.159-2.159-2.159c-1.192 0-2.159 0.967-2.159 2.159 0 0.259 0.046 0.508 0.13 0.739l-0.005-0.015-4.96 0.606-8.091-8.133c-0.096-0.098-0.229-0.159-0.376-0.16h-0c-0.14 0.001-0.274 0.057-0.373 0.155l-1.512 1.504c-0.096 0.097-0.156 0.23-0.156 0.377s0.060 0.281 0.156 0.377v0l0.814 0.825c-1.143 2.062-1.816 4.522-1.816 7.139 0 4.106 1.656 7.824 4.336 10.525l-0.001-0.001c0.043 0.041 0.092 0.074 0.146 0.097-0.032 0.164-0.051 0.353-0.052 0.546v6.188h-6.4c-1.472 0.001-2.666 1.194-2.667 2.666v1.067c0 0.295 0.239 0.534 0.534 0.534h24.534c0.294 0 0.533-0.239 0.533-0.534v-1.067c-0.002-1.472-1.195-2.665-2.666-2.666h-6.4v-2.742c1.003 0.21 2.024 0.317 3.049 0.32 2.58-0.003 5.005-0.663 7.117-1.822l-0.077 0.039 0.818 0.823c0.099 0.101 0.235 0.159 0.376 0.16 0.14-0.001 0.274-0.057 0.373-0.155l1.512-1.504c0.096-0.097 0.156-0.23 0.156-0.377s-0.060-0.281-0.156-0.377v0zM23.28 6.233c0.193-0.192 0.459-0.31 0.752-0.31 0.589 0 1.067 0.478 1.067 1.066s-0.477 1.066-1.067 1.066c-0 0-0 0-0 0h-0.004c-0.587-0.003-1.061-0.479-1.061-1.066 0-0.295 0.12-0.563 0.314-0.756l0-0h-0.002zM22.024 9.737l-0.598 2.946-1.175-1.183 1.774-1.763zM21.419 8.835l-1.92 1.909-1.486-1.493 3.406-0.416zM24.004 28.8c0.884 0 1.6 0.716 1.6 1.6v0 0.534h-23.466v-0.534c0-0.884 0.716-1.6 1.6-1.6v0h20.267zM16.538 26.666v1.067h-5.334v-1.067h5.334zM11.204 25.6v-4.053c0-1.294 1.196-2.346 2.667-2.346s2.667 1.053 2.667 2.346v4.053h-5.334zM17.604 23.904v-2.357c0-1.882-1.675-3.413-3.733-3.413-0.017-0-0.038-0-0.058-0-1.353 0-2.54 0.707-3.213 1.771l-0.009 0.016c-2.36-2.482-3.812-5.846-3.812-9.55 0-2.314 0.567-4.496 1.569-6.414l-0.036 0.077 18.602 18.709c-1.823 0.947-3.979 1.502-6.266 1.502-1.079 0-2.128-0.124-3.136-0.357l0.093 0.018zM28.893 23.22l-21.057-21.181 0.754-0.752 7.935 7.98c0.004 0 0.006 0.007 0.010 0.010l13.114 13.191-0.757 0.752z"></path>
<path fill="#2196f3" style="fill: var(--color3, #2196f3)" d="M13.876 20.267h-0.005c-0.001 0-0.002 0-0.002 0-0.884 0-1.6 0.716-1.6 1.6s0.715 1.599 1.597 1.6h0.005c0.001 0 0.001 0 0.002 0 0.884 0 1.6-0.716 1.6-1.6s-0.715-1.599-1.598-1.6h-0zM14.249 22.245c-0.096 0.096-0.229 0.155-0.376 0.155-0.295 0-0.534-0.239-0.534-0.534s0.238-0.533 0.532-0.533h0c0.293 0.001 0.531 0.239 0.531 0.533 0 0.148-0.060 0.282-0.157 0.378l-0 0h0.005z"></path>
</symbol>
<symbol id="icon-clock" viewBox="0 0 32 32">
<path fill="#212121" style="fill: var(--color2, #212121)" d="M31.296 15.301c-0.001-8.452-6.855-15.303-15.308-15.301s-15.303 6.855-15.301 15.308c0.002 6.788 4.422 12.543 10.541 14.545l0.108 0.031c0.061 0.019 0.123 0.029 0.187 0.029 0.12 0 0.238-0.032 0.342-0.094 0.135-0.080 0.236-0.207 0.283-0.357l3.865-12.25c1.054-0.004 1.906-0.859 1.906-1.913 0-1.056-0.856-1.913-1.913-1.913-0.303 0-0.59 0.071-0.845 0.196l0.011-0.005-5.106-5.107c-0.114-0.11-0.271-0.179-0.443-0.179-0.352 0-0.638 0.286-0.638 0.638 0 0.172 0.068 0.328 0.179 0.443l-0-0 5.103 5.109c-0.121 0.241-0.191 0.525-0.191 0.826 0 0.602 0.283 1.137 0.723 1.48l0.004 0.003-3.682 11.673c-7.278-2.681-11.004-10.754-8.324-18.032s10.754-11.004 18.032-8.323c7.278 2.681 11.004 10.754 8.323 18.032-1.345 3.581-4.003 6.406-7.374 7.938l-0.088 0.036-0.398-1.874c-0.063-0.291-0.318-0.506-0.624-0.506-0.164 0-0.313 0.062-0.426 0.163l0.001-0.001-3.837 3.426c-0.132 0.117-0.214 0.287-0.214 0.477 0 0.283 0.185 0.524 0.441 0.606l0.005 0.001 4.899 1.563c0.058 0.020 0.126 0.031 0.196 0.031 0.352 0 0.637-0.285 0.637-0.637 0-0.047-0.005-0.093-0.015-0.138l0.001 0.004-0.391-1.839c5.528-2.374 9.329-7.772 9.329-14.057 0-0.011 0-0.023-0-0.034v0.002zM15.992 14.664c0.352 0 0.638 0.286 0.638 0.638s-0.285 0.638-0.638 0.638v0c-0.352 0-0.638-0.286-0.638-0.638s0.286-0.638 0.638-0.638v0zM18.092 29.528l2.184-1.948 0.603 2.84-2.787-0.892z"></path>
<path fill="#2196f3" style="fill: var(--color3, #2196f3)" d="M15.354 3.185v1.275c0 0.352 0.286 0.638 0.638 0.638s0.638-0.285 0.638-0.638v0-1.275c0-0.352-0.285-0.638-0.638-0.638s-0.638 0.285-0.638 0.638v0zM3.876 14.664c-0.352 0-0.638 0.286-0.638 0.638s0.285 0.638 0.638 0.638h1.275c0.352 0 0.638-0.286 0.638-0.638s-0.285-0.638-0.638-0.638h-1.275zM28.108 15.939c0.352 0 0.638-0.286 0.638-0.638s-0.285-0.638-0.638-0.638h-1.275c-0.352 0-0.638 0.286-0.638 0.638s0.285 0.638 0.638 0.638h1.275z"></path>
</symbol>
<symbol id="icon-diagram" viewBox="0 0 32 32">
<path fill="#2196f3" style="fill: var(--color3, #2196f3)" d="M14.926 14.965h1.066v4.798h-1.066v-4.798zM19.19 17.097h1.066v2.665h-1.066v-2.665zM10.661 18.696h1.066v1.066h-1.066v-1.066zM7.463 18.163h1.066v1.599h-1.066v-1.599z"></path>
<path fill="#212121" style="fill: var(--color2, #212121)" d="M1.599 28.291h25.586c0 0 0 0 0 0 0.883 0 1.599-0.716 1.599-1.599v0-2.132c0-0.883-0.716-1.599-1.599-1.599v0h-0.533v-13.294l3.028-2.868c0.207 0.104 0.452 0.166 0.711 0.166 0.888 0 1.608-0.72 1.608-1.608s-0.72-1.608-1.608-1.608c-0.888 0-1.608 0.72-1.608 1.608 0 0.247 0.056 0.481 0.155 0.69l-0.004-0.010-2.281 2.162v-1.23c0-0.883-0.716-1.599-1.599-1.599v0h-21.323c-0.883 0-1.599 0.716-1.599 1.599v0 15.992h-0.533c-0.883 0-1.599 0.716-1.599 1.599v0 2.132c0 0.883 0.716 1.599 1.599 1.599v0zM30.384 4.837c0.294 0 0.533 0.239 0.533 0.533s-0.239 0.533-0.533 0.533v0c-0.294 0-0.533-0.239-0.533-0.533s0.239-0.533 0.533-0.533v0zM3.198 6.969c0-0.294 0.239-0.533 0.533-0.533h21.323c0.294 0 0.533 0.239 0.533 0.533v2.239l-1.066 1.013v-2.185c0-0.295-0.239-0.534-0.534-0.534h-19.189c-0.294 0-0.534 0.239-0.534 0.533v13.327c0 0.294 0.239 0.533 0.534 0.533h19.189c0.295 0 0.534-0.239 0.534-0.533v-9.675l1.066-1.010v12.283h-22.389v-15.991zM7.996 13.899c-0.001 0-0.003 0-0.005 0-0.883 0-1.599 0.716-1.599 1.599s0.716 1.599 1.599 1.599c0.432 0 0.824-0.172 1.112-0.45l-0 0 1.853 0.93c0.215 0.107 0.476 0.057 0.636-0.122l3.939-4.432 3.872 2.902c0.208 0.155 0.498 0.139 0.686-0.039l3.365-3.188v8.131h-18.123v-12.261h18.123v2.661l-3.771 3.572-3.904-2.927c-0.088-0.067-0.2-0.107-0.32-0.107-0.158 0-0.3 0.069-0.398 0.178l-0 0.001-3.993 4.493-1.493-0.746c0.011-0.064 0.017-0.128 0.020-0.193 0-0.883-0.716-1.599-1.599-1.599v0zM8.529 15.498c0 0.294-0.239 0.533-0.533 0.533s-0.533-0.239-0.533-0.533v0c0-0.294 0.239-0.533 0.533-0.533s0.533 0.239 0.533 0.533v0zM11.727 24.026h5.33v0.533c0 0.294-0.238 0.533-0.533 0.533h-4.265c-0.294 0-0.533-0.239-0.533-0.533v0-0.533zM1.067 24.56c0-0.294 0.238-0.533 0.533-0.533h9.062v0.533c0 0.883 0.716 1.599 1.599 1.599v0h4.265c0.883 0 1.599-0.716 1.599-1.599v0-0.533h9.062c0.294 0 0.533 0.239 0.533 0.533v2.132c0 0.294-0.239 0.533-0.533 0.533h-25.586c-0 0-0 0-0 0-0.294 0-0.533-0.239-0.533-0.533 0 0 0 0 0 0v0-2.132z"></path>
</symbol>
<symbol id="icon-astronaut" viewBox="0 0 32 32">
<path fill="#2196f3" style="fill: var(--color3, #2196f3)" d="M31.974 4.524c-0.064-0.191-0.227-0.332-0.427-0.362l-0.003-0-1.911-0.278-0.855-1.731c-0.179-0.365-0.777-0.365-0.956 0l-0.855 1.731-1.911 0.278c-0.26 0.039-0.457 0.26-0.457 0.528 0 0.15 0.062 0.285 0.161 0.382l1.383 1.348-0.326 1.903c-0.034 0.2 0.048 0.402 0.212 0.522 0.166 0.12 0.383 0.135 0.562 0.040l1.709-0.899 1.709 0.899c0.072 0.038 0.157 0.061 0.247 0.061 0.295 0 0.534-0.239 0.534-0.534 0-0.031-0.003-0.062-0.008-0.092l0 0.003-0.326-1.903 1.383-1.348c0.099-0.097 0.161-0.233 0.161-0.382 0-0.059-0.009-0.115-0.027-0.168l0.001 0.004zM29.511 5.851c-0.126 0.122-0.183 0.299-0.153 0.472l0.191 1.114-1-0.526c-0.072-0.039-0.158-0.062-0.249-0.062s-0.177 0.023-0.252 0.063l0.003-0.001-1 0.526 0.191-1.114c0.005-0.027 0.008-0.059 0.008-0.091 0-0.149-0.061-0.285-0.16-0.381l-0-0-0.811-0.79 1.119-0.162c0.174-0.025 0.324-0.134 0.402-0.292l0.5-1.013 0.5 1.013c0.078 0.158 0.228 0.267 0.402 0.292l1.119 0.162-0.809 0.79zM26.134 20.522h-1.067v1.067h1.067v-1.067zM26.134 22.656h-1.067v1.066h1.067v-1.066zM27.2 21.589h-1.067v1.067h1.067v-1.067zM25.067 21.589h-1.067v1.067h1.067v-1.067zM22.4 26.389h-1.067v1.067h1.067v-1.067zM22.4 28.523h-1.067v1.067h1.067v-1.067zM23.467 27.456h-1.067v1.067h1.067v-1.067zM21.334 27.456h-1.067v1.067h1.067v-1.067zM16 24.256h-1.066v1.067h1.066v-1.067zM16 26.389h-1.066v1.067h1.066v-1.067zM17.067 25.322h-1.067v1.067h1.067v-1.067zM14.934 25.322h-1.067v1.067h1.067v-1.067zM5.867 6.122h-1.066v1.066h1.066v-1.066zM5.867 8.256h-1.066v1.066h1.066v-1.066zM6.933 7.189h-1.067v1.067h1.066v-1.067zM4.8 7.189h-1.067v1.067h1.067v-1.067z"></path>
<path fill="#212121" style="fill: var(--color2, #212121)" d="M24.715 14.16c-0.28-0.376-0.698-0.636-1.179-0.703l-0.009-0.001c-0.076-0.012-0.164-0.018-0.254-0.018-0.411 0-0.789 0.139-1.090 0.373l0.004-0.003-1.253 0.96-1.898 1.417-1.358-0.541c2.421-1.086 4.113-3.508 4.113-6.32 0-3.823-3.122-6.934-6.961-6.934s-6.961 3.11-6.961 6.934c0 1.386 0.415 2.674 1.12 3.759l-2.768-0.024c-0.009 0-0.016 0.005-0.023 0.005-0.057 0.003-0.11 0.014-0.159 0.033l0.004-0.001c-0.013 0.005-0.026 0.007-0.038 0.013-0.006 0.003-0.013 0.003-0.019 0.006l-3.233 1.596c-0 0-0.001 0-0.001 0.001l-1.893 0.91c-0.024 0.011-0.045 0.023-0.065 0.036l0.001-0.001c-0.482 0.324-0.795 0.867-0.795 1.483 0 0.297 0.073 0.577 0.201 0.823l-0.005-0.010c0.22 0.424 0.592 0.742 1.043 0.885l0.013 0.003c0.161 0.053 0.345 0.083 0.537 0.083 0.308 0 0.598-0.078 0.851-0.216l-0.009 0.005 1.388-0.738 2.264-1.169 1.357-0.008-5.442 5.415c0 0.001-0.001 0.001-0.001 0.001l-1.339 1.333c-0.303 0.299-0.491 0.714-0.491 1.173 0 0.002 0 0.003 0 0.005v-0c0.002 0.919 0.748 1.664 1.667 1.664 0.001 0 0.002 0 0.002 0h-0c0.428 0 0.854-0.162 1.18-0.485l1.314-1.309 1.741-1.3 0.901 0.897-3.102 3.088c-0.303 0.299-0.491 0.714-0.491 1.173 0 0.001 0 0.003 0 0.004v-0c0 0.445 0.174 0.864 0.49 1.179 0.302 0.3 0.717 0.485 1.176 0.485 0.001 0 0.002 0 0.003 0h-0c0.427 0 0.855-0.162 1.18-0.485l4.488-4.472c0.007-0.006 0.016-0.009 0.022-0.016l5.166-5.658 3.471 0.494c0.025 0.004 0.050 0.006 0.075 0.006 0.064 0 0.127-0.016 0.187-0.038 0.017-0.006 0.032-0.015 0.049-0.023 0.019-0.010 0.039-0.015 0.058-0.027l3.213-2.133c0.012-0.008 0.018-0.021 0.029-0.030 0.013-0.010 0.029-0.014 0.041-0.026l1.271-1.191c0.348-0.326 0.564-0.787 0.564-1.3 0-0.4-0.132-0.769-0.355-1.066l0.003 0.005zM2.13 17.77c-0.098 0.054-0.215 0.086-0.34 0.086-0.078 0-0.153-0.013-0.224-0.036l0.005 0.001c-0.294-0.093-0.504-0.364-0.504-0.683 0-0.235 0.114-0.444 0.289-0.575l0.002-0.001 1.314-0.632 0.316 0.924 0.133 0.389-0.992 0.527zM5.627 15.942l-1.548 0.8-0.255-0.746-0.184-0.537 2.027-1.001-0.040 1.484zM20.727 9.322c0 0.918-0.219 1.785-0.599 2.56l-4.181-1.899c-0.044-0.575-0.342-1.072-0.782-1.384l-0.006-0.004 1.464-4.861c2.377 0.757 4.104 2.975 4.104 5.588zM8.938 9.322c0-3.235 2.644-5.867 5.894-5.867 0.253 0 0.5 0.022 0.745 0.053l-1.432 4.753c-0.019 0-0.037-0.006-0.057-0.006-0 0-0.001 0-0.001 0-1.032 0-1.869 0.835-1.872 1.867v0c0.003 1.031 0.84 1.867 1.872 1.867 0 0 0 0 0.001 0h-0c0.695 0 1.295-0.383 1.618-0.944l3.863 1.755c-1.075 1.447-2.795 2.39-4.737 2.39-3.25 0-5.894-2.632-5.894-5.867zM14.895 10.122c0 0.441-0.362 0.8-0.806 0.8-0 0-0.001 0-0.001 0-0.443 0-0.802-0.358-0.804-0.8v-0c0-0.441 0.361-0.8 0.806-0.8s0.806 0.359 0.806 0.8zM2.464 25.146c-0.11 0.109-0.261 0.176-0.428 0.176s-0.317-0.067-0.427-0.175l0 0c-0.109-0.108-0.176-0.257-0.176-0.422s0.067-0.314 0.176-0.422l0-0 0.962-0.959 0.852 0.848-0.959 0.954zM5.678 28.88c-0.11 0.109-0.261 0.176-0.428 0.176s-0.317-0.067-0.427-0.175l0 0c-0.109-0.108-0.176-0.257-0.176-0.422s0.067-0.314 0.176-0.422l0-0 0.963-0.959 0.852 0.848-0.96 0.955zM9.16 25.411l-0.001 0.001-1.765 1.76-0.852-0.848 1.765-1.757c0.040-0.040 0.065-0.088 0.090-0.136 0.007-0.014 0.020-0.026 0.026-0.040 0.016-0.041 0.019-0.085 0.026-0.128 0.003-0.025 0.014-0.048 0.014-0.073 0-0.035-0.013-0.070-0.020-0.105-0.006-0.032-0.006-0.064-0.019-0.096-0.025-0.053-0.055-0.098-0.092-0.138l0 0c-0.010-0.012-0.014-0.026-0.025-0.038h-0.001s0-0.001-0.001-0.002l-1.607-1.6c-0.017-0.017-0.039-0.024-0.058-0.038-0.025-0.021-0.054-0.040-0.084-0.056l-0.003-0.001c-0.026-0.012-0.058-0.023-0.090-0.031l-0.003-0.001c-0.030-0.009-0.065-0.017-0.101-0.020l-0.002-0c-0.007-0-0.015-0-0.023-0-0.026 0-0.051 0.002-0.075 0.005l0.003-0c-0.036 0.005-0.069 0.009-0.104 0.021s-0.064 0.027-0.094 0.045c-0.020 0.011-0.043 0.015-0.061 0.029l-1.774 1.324-0.901-0.897 2.399-2.386 4.36 4.289-0.928 0.919zM15.979 18.394c-0.016-0.002-0.030 0.004-0.046 0.003-0.008-0-0.017-0.001-0.027-0.001-0.031 0-0.062 0.003-0.092 0.008l0.003-0c-0.070 0.011-0.132 0.035-0.187 0.070l0.002-0.001c-0.030 0.018-0.057 0.037-0.083 0.061-0.013 0.011-0.028 0.016-0.040 0.029l-4.698 5.146-4.328-4.256 2.833-2.818c0.096-0.097 0.156-0.23 0.156-0.377 0-0.295-0.239-0.534-0.534-0.534-0.001 0-0.001 0-0.002 0h0l-2.219 0.013 0.028-1.607 3.104 0.027c1.264 1.297 3.027 2.101 4.978 2.101 0.001 0 0.002 0 0.003 0h-0c0.438 0 0.864-0.046 1.28-0.122 0.040 0.032 0.080 0.064 0.129 0.085l2.41 0.96 0.152 0.758 0.178 0.886-3.003-0.427zM20.020 18.572l-0.313-1.558 1.446-1.080 0.946 1.257-2.080 1.381zM23.773 15.741l-0.837 0.785-0.931-1.236 0.831-0.637c0.155-0.119 0.351-0.168 0.543-0.143 0.193 0.027 0.364 0.128 0.48 0.284 0.088 0.117 0.141 0.265 0.141 0.426 0 0.206-0.087 0.391-0.226 0.521l-0 0z"></path>
<path fill="#212121" style="fill: var(--color2, #212121)" d="M13.602 18.544l-2.143-2.134c-0.096-0.096-0.229-0.155-0.376-0.155s-0.28 0.059-0.376 0.155l-2.143 2.133c-0.097 0.097-0.156 0.23-0.156 0.378s0.060 0.281 0.156 0.378l-0-0 2.142 2.134c0.096 0.096 0.229 0.156 0.376 0.156s0.28-0.059 0.376-0.156v0l2.143-2.134c0.097-0.097 0.157-0.23 0.157-0.378s-0.060-0.281-0.157-0.378l-0-0zM11.083 20.303l-1.387-1.381 1.386-1.381 1.387 1.381-1.387 1.381zM17.164 5.071l-0.258 1.036c0.071 0.018 1.738 0.452 1.738 2.149h1.067c0-2.017-1.666-2.965-2.547-3.184zM19.711 9.322h-1.067v1.066h1.067v-1.066z"></path>
</symbol>
<symbol id="icon-logo1" viewBox="0 0 57 32">
<path  d="M20.267 3.733l3.733 3.733h-6.933v17.067h18.133v-6.4l3.733 3.2v-17.6h-18.667zM35.2 17.6l-10.667-10.133h10.667v10.133zM32 21.867h-12.267v-11.733h1.067v11.2h11.2v0.533zM22.933 26.667l-0.533 1.067-0.533-1.067h-0.533l0.533 1.067v1.067h0.533v-1.067l0.533-1.067zM23.467 28.8v-0.533h0.533l0.533 0.533-0.533-2.133h-0.533l-0.533 2.133h0.533zM24 27.2v0.533h-0.533l0.533-0.533zM25.6 27.733v0.533l0.533 0.533 0.533-0.533v0.533h0.533l-1.067-1.067 0.533-0.533c0.045-0.076 0.071-0.168 0.071-0.267s-0.027-0.19-0.073-0.269l0.001 0.003h-1.067v1.067zM26.133 28.267h-0.533l0.533-0.533v0.533zM29.333 28.267v-0.533h-0.533v0.533h-0.533v-1.067h1.067v-0.533h-1.067l-0.533 0.533v1.067l0.533 0.533h0.533l0.533-0.533zM30.933 28.267v-1.067c0-0.295-0.239-0.533-0.533-0.533v0h-0.533v0.533l-0.533 0.533 1.067 1.067 0.533-0.533zM30.933 27.2v1.067h-1.067v-1.067h1.067z"></path>
</symbol>
<symbol id="icon-logo2" viewBox="0 0 57 32">
<path  d="M26.667 3.2h-0.533c-0.079-0.002-0.173-0.003-0.267-0.003s-0.187 0.001-0.281 0.003l0.014-0c-2.133 0-4.267 0.533-5.867 1.6v11.733h0.533c1.739-0.611 3.746-0.996 5.834-1.066l0.033-0.001v1.6h-1.067c-2.577 0.224-4.935 0.988-7.017 2.177l0.084-0.044v-15.467c2.291-1.341 5.044-2.133 7.982-2.133 0.006 0 0.012 0 0.019 0h-0.001c1 0.112 1.904 0.299 2.776 0.562l-0.11-0.028v1.6l-1.6-0.533h-0.533zM29.333 4.8h1.067c2.944-0.023 5.698-0.811 8.081-2.176l-0.081 0.043v14.933c-2.189 1.198-4.796 1.903-7.568 1.903-1.096 0-2.167-0.11-3.202-0.32l0.103 0.017v-14.933c0.434 0.186 0.967 0.369 1.514 0.514l0.086 0.019zM36.8 4.8h-0.533l-1.067 0.533c-1.366 0.369-2.935 0.581-4.553 0.581-0.462 0-0.92-0.017-1.374-0.051l0.060 0.004h-0.533v12.267h1.6c2.343-0.034 4.541-0.621 6.479-1.638l-0.079 0.038v-11.733z"></path>
<path  d="M19.2 24c-0.076-0.045-0.168-0.071-0.267-0.071s-0.19 0.027-0.269 0.073l0.003-0.001h-0.533c-0.238 0.109-0.424 0.296-0.531 0.527l-0.003 0.007v2.667h0.533v0.533h0.533c0.326-0.187 0.542-0.532 0.542-0.929 0-0.049-0.003-0.096-0.010-0.143l0.001 0.005h-0.533v0.533c-0.076 0.045-0.168 0.071-0.267 0.071s-0.19-0.027-0.269-0.073l0.003 0.001v-2.667c0.076-0.045 0.168-0.071 0.267-0.071s0.19 0.027 0.269 0.073l-0.003-0.001v0.533h0.533v-0.533c0.021-0.080 0.034-0.172 0.034-0.267s-0.012-0.187-0.036-0.274l0.002 0.007zM22.4 24c-0.153-0.090-0.337-0.143-0.533-0.143s-0.38 0.053-0.538 0.146l0.005-0.003h-0.533v3.2l0.533 0.533c0.080 0.021 0.172 0.034 0.267 0.034s0.187-0.012 0.274-0.036l-0.007 0.002 0.533-0.533c0.021-0.080 0.034-0.172 0.034-0.267s-0.012-0.187-0.036-0.274l0.002 0.007v-2.667zM21.867 26.667c0.045 0.076 0.071 0.168 0.071 0.267s-0.027 0.19-0.073 0.269l0.001-0.003c-0.076 0.045-0.168 0.071-0.267 0.071s-0.19-0.027-0.269-0.073l0.003 0.001c-0.045-0.076-0.071-0.168-0.071-0.267s0.027-0.19 0.073-0.269l-0.001 0.003v-2.133c0.076-0.045 0.168-0.071 0.267-0.071s0.19 0.027 0.269 0.073l-0.003-0.001v2.133zM26.133 27.733v-3.733h-0.533l-0.533 1.6-0.533-1.6h-0.533v3.733h0.533v-2.133l0.533 1.067 0.533-1.067v2.133h0.533zM29.333 24h-1.6v3.733h0.533v-1.6h1.067v-0.533c0.034-0.16 0.054-0.345 0.054-0.533s-0.020-0.373-0.057-0.551l0.003 0.017v-0.533zM28.8 25.067v0.533h-0.533v-1.067h0.533v0.533zM32 24h-0.533l-1.067 3.733h0.533l0.533-1.067h0.533v1.067h0.533l-0.533-3.733zM31.467 26.133v-1.067l0.533 1.067h-0.533zM35.2 26.133l-1.067-2.133v1.6h0.533l0.533 2.133h0.533v-3.733h-0.533v2.133zM38.4 24l-0.533 1.6-0.533-1.6h-0.533l1.067 2.133v1.6h0.533v-1.6l0.533-2.133h-0.533zM17.6 28.8v0.533h0.533v-1.067h-0.533v0.533zM19.733 28.267l-0.533 1.067h1.067l-0.533-1.067zM21.867 28.8v0.533l-0.533-0.533h1.067l-0.533-0.533-0.533 0.533v0.533c0.076 0.045 0.168 0.071 0.267 0.071s0.19-0.027 0.269-0.073l-0.003 0.001h0.533v-0.533h-0.533zM24 28.267v0zM25.6 28.267v0zM27.733 28.8l-0.533-0.533v0.533l0.533 0.533v-0.533zM29.333 28.8v-0.533h-0.533v1.067h0.533v-0.533zM33.067 28.8h-0.533v0h0.533v0zM34.667 28.8h0.533v-0.533h-0.533v0.533zM36.8 28.8v-0.533h-0.533v0.533h0.533v0zM36.8 28.8v0zM38.4 28.8h0.533v-0.533h-0.533v0.533z"></path>
</symbol>
<symbol id="icon-logo3" viewBox="0 0 57 32">
<path  d="M19.2 26.133h0.533l-0.533 0.533h-1.067v-0.533h-0.533c-0.090-0.153-0.143-0.337-0.143-0.533s0.053-0.38 0.146-0.538l-0.003 0.005h0.533v-0.533c0.159-0.058 0.342-0.091 0.533-0.091s0.375 0.034 0.544 0.095l-0.011-0.004 0.533 0.533h-0.533c-0.080-0.021-0.172-0.034-0.267-0.034s-0.187 0.012-0.274 0.036l0.007-0.002h-0.533v1.067h1.067zM22.933 25.6v0.533h-0.533v0.533h-1.067l-0.533-0.533v-1.067l0.533-0.533h1.067v0.533c0.238 0.109 0.424 0.296 0.531 0.527l0.003 0.007zM22.4 25.6v-0.533c-0.076-0.045-0.168-0.071-0.267-0.071s-0.19 0.027-0.269 0.073l0.003-0.001h-1.067v1.067c0.076 0.045 0.168 0.071 0.267 0.071s0.19-0.027 0.269-0.073l-0.003 0.001h1.067v-0.533zM25.067 26.133l1.067-1.6v0.533l-1.067 1.067-1.067-1.067v1.6-2.133h0.533l0.533 1.6zM27.733 25.6v1.067-2.133h1.067v1.067l-0.533 0.533-0.533-0.533zM27.733 25.6h1.067v-0.533h-1.067v0.533zM32 26.667h-0.533v-0.533h-1.067l-0.533 0.533 0.533-2.133h0.533l1.067 2.133zM30.4 26.133h0.533v-1.067l-0.533 1.067zM33.067 24.533l1.067 1.6v-1.6h0.533v2.133h-0.533l-1.067-1.6v1.6-2.133zM36.8 25.6v1.067h-0.533v-1.067l-0.533-1.067h0.533v1.067c0.080-0.021 0.172-0.034 0.267-0.034s0.187 0.012 0.274 0.036l-0.007-0.002zM25.067 21.333c2.133-0.533 3.733-1.6 4.8-3.2 1.6-1.6 2.133-3.733 2.133-5.333l-2.133-2.133c0 2.133 0 4.267-1.067 5.867-0.533 2.133-2.133 3.733-3.733 4.8z"></path>
<path  d="M24 21.333c2.133-1.067 3.733-2.667 4.267-4.8 1.067-2.133 1.067-4.267 0.533-6.4l-3.2-2.667c0.983 1.679 1.564 3.698 1.564 5.852 0 3.102-1.204 5.923-3.17 8.021l0.006-0.006zM34.667 14.933c-0.533 2.133-1.6 3.733-3.733 5.333l-1.6 1.067 3.733-2.133 2.667-3.2-1.067-1.067z"></path>
<path  d="M34.133 14.4l-1.6-1.6c0 2.133-1.067 3.733-2.133 5.333s-2.133 2.667-4.267 3.2h1.6l4.267-2.667 2.133-4.267zM24.533 6.4l-2.133-1.6c-2.133 0.533-3.733 1.6-4.8 3.2-1.067 1.067-1.6 3.2-1.6 4.8 0 2.133 0.533 3.733 2.133 5.333 1.067 1.6 3.2 2.667 5.333 3.2 2.133-2.133 3.2-4.8 3.2-7.467s-0.533-5.333-2.133-7.467zM38.933 14.4c0-2.667-1.067-4.8-2.667-6.4-1.881-1.697-4.386-2.736-7.133-2.736-1.266 0-2.481 0.221-3.608 0.626l0.074-0.023 12.8 11.733 0.533-3.2z"></path>
</symbol>
<symbol id="icon-logo4" viewBox="0 0 57 32">
<path  d="M12.8 11.2c-1.067 0-2.133 1.067-2.133 2.133s1.067 2.133 2.133 2.133c1.6 0 2.133-1.067 2.133-2.133s-0.533-2.133-2.133-2.133zM29.867 10.667c0-1.6-0.533-3.2-1.6-4.267l-4.8-1.6c-2.133 0-3.733 0.533-4.8 1.6-1.6 1.067-2.133 2.667-2.133 4.267v8.533s13.333-1.067 13.333-8.533zM5.867 22.4c0 1.067 0.533 2.133 1.6 2.667l3.2 1.067 3.2-1.067c1.067-0.533 1.067-1.6 1.067-2.667v-6.4s-9.067 1.067-9.067 6.4zM10.667 23.467l-1.067-0.533v-0.533l-0.533-0.533 0.533-0.533h2.133c0.113 0.167 0.18 0.372 0.18 0.593 0 0.463-0.294 0.856-0.706 1.004l-0.007 0.002-0.533 0.533zM19.733 22.4h-0.533v1.067h-0.533v-2.133h1.6v0.533h-1.067v0.533h0.533zM22.4 22.4l-0.533 0.533c-0.109 0.238-0.296 0.424-0.527 0.531l-0.007 0.003h-0.533l-0.533-0.533v-1.067c0.187-0.326 0.532-0.542 0.929-0.542 0.049 0 0.096 0.003 0.143 0.010l-0.005-0.001h0.533v0.533l0.533 0.533zM21.867 22.4v-0.533h-1.067v1.067l0.533 0.533 0.533-0.533v-0.533zM23.467 22.933v-0.533h-0.533l-0.533-0.533v-0.533h1.6v0.533h-1.067l0.533 0.533h0.533v1.067h-1.6v-0.533h0.533l0.533 0.533v-0.533zM26.133 21.867h-0.533v1.6h-0.533v-1.6h-0.533v-0.533h1.6v0.533zM27.733 22.4h-0.533v1.067h-0.533v-2.133h1.6v0.533h-1.067v0.533h0.533zM29.333 22.933h-0.533v0.533h-0.533v-2.133h1.6v1.067h-0.533l0.533 1.067h-0.533v-0.533zM28.8 22.4h0.533v-0.533h-0.533v0.533zM31.467 22.933v0.533h-0.533v-2.133h1.6v0.533h0.533l-1.067 1.067h-0.533zM31.467 22.4h1.067v-0.533h-1.067v0.533zM34.667 22.4h-1.067v1.067h-0.533v-2.133h1.6v0.533h-1.067v0.533h1.067zM36.8 21.867h-0.533v1.6h-0.533v-1.6h-1.067v-0.533h2.133v0.533zM38.4 22.4h-1.067v1.067h-0.533v-2.133h1.6v0.533h-1.067v0.533h1.067zM39.467 22.933v0.533h-0.533v-2.133h1.6v1.067h-0.533l0.533 1.067h-0.533l-0.533-0.533zM39.467 22.4h0.533v-0.533h-0.533v0.533zM42.133 22.933l-0.533-0.533h-0.533v-1.067h1.067l0.533 0.533h-1.067v0.533h0.533l0.533 0.533-0.533 0.533h-1.067l-0.533-0.533h0.533l0.533 0.533 0.533-0.533z"></path>
</symbol>
<symbol id="icon-logo5" viewBox="0 0 57 32">
<path  d="M14.4 24v1.067h-2.667v-3.2h1.6l0.533 0.533h0.533v1.067h-0.533l0.533 0.533zM12.267 23.467h1.067l0.533-0.533-0.533-0.533h-1.067v1.067zM13.333 24.533h0.533v-0.533h-1.6v0.533h1.067zM17.6 25.067l-1.067-1.067h-0.533v1.067h-0.533v-3.2h1.6l1.067 1.067v0.533l-1.067 0.533 1.067 1.067h-0.533zM16 23.467h1.067l0.533-0.533h-0.533v-0.533h-1.067v1.067zM21.333 24.533h-1.6v0.533h-1.067l1.6-3.2h0.533l1.6 3.2h-1.067v-0.533zM21.333 24l-0.533-1.067-0.533 1.067h1.067zM26.133 25.067h-0.533l-1.6-2.133v2.133h-0.533v-3.2h0.533l1.6 2.133v-2.133h0.533v3.2zM30.4 24.533l-0.533 0.533h-2.133v-3.2h1.067l1.067 0.533 0.533 0.533c0.135 0.23 0.214 0.505 0.214 0.8s-0.080 0.57-0.218 0.808l0.004-0.008zM29.333 24.533l0.533-1.067-1.067-1.067h-0.533v2.133h1.067zM21.867 3.733s9.067 3.2 9.067 8v7.467s-9.6-3.2-9.067-7.467v-8zM38.933 17.6c2.133-1.067 4.267-2.133 6.4-2.133v-2.667c-2.667 1.067-4.8 2.667-6.4 4.8z"></path>
<path  d="M37.867 18.133c1.6-2.667 4.267-4.8 7.467-5.867v-6.933s-13.333 4.8-13.333 11.2v11.2l1.6-0.533v-1.067c0.533-3.2 2.133-5.867 4.267-8z"></path>
<path  d="M36.8 22.4l0.533-2.133c-1.557 1.688-2.55 3.918-2.666 6.377l-0.001 0.023 2.667-1.067-0.533-3.2zM37.333 22.4v3.2c3.733-2.133 8-5.333 8-9.067-2.667 0-5.333 1.067-6.933 2.667l-1.067 3.2z"></path>
</symbol>
<symbol id="icon-logo6" viewBox="0 0 57 32">
<path d="M28.267 14.4v-3.2l1.067-0.533h1.067l0.533 1.067v0.533h-1.067v-1.067h-0.533v3.2h0.533v-1.067h1.067v0.533l-0.533 0.533-1.067 0.533-1.067-0.533zM32 14.4v-3.733h2.133l0.533 1.067v1.6l-0.533 1.067-1.067 0.533-1.067-0.533zM33.6 14.4v-3.2h-0.533l-0.533 0.533v2.133l0.533 0.533c0.077 0.045 0.168 0.071 0.267 0.071s0.19-0.027 0.269-0.073l-0.003 0.001zM35.733 10.667h1.067l0.533 3.2 0.533-3.2h1.067v4.267h-0.533v-3.2l-0.533 3.2h-0.533l-1.067-3.2v3.2h-0.533v-4.267zM40 10.667h1.6c1.067 0 1.067 0.533 1.067 1.067 0 1.067 0 1.067-1.067 1.067h-0.533v2.133h-1.067v-4.267zM41.6 12.267h0.533v-1.067h-1.067v1.067h0.533zM44.267 10.667h1.067l1.067 4.267h-1.067v-1.067h-1.067v1.067h-1.067l1.067-4.267zM44.8 13.333v-1.6l-0.533 1.6h0.533zM46.933 10.667h0.533l1.6 2.667v-2.667h0.533v4.267h-0.533l-1.067-2.667v2.667h-1.067v-4.267zM51.2 13.333l-1.067-2.667h1.067l0.533 1.6 0.533-1.6h1.067l-1.067 2.667v1.6h-1.067v-1.6zM29.867 17.067h-0.533v1.6h-0.533v-1.6h1.067zM32 18.667l-0.533-0.533h-1.067v0.533h-0.533l1.067-1.6h0.533l0.533 1.6zM30.933 18.133h0.533v-1.067h-0.533v1.067zM33.6 18.667h0.533v-1.067h0.533v1.067c-0.080 0.014-0.172 0.022-0.267 0.022s-0.187-0.008-0.276-0.024l0.010 0.001h-1.067l-0.533-0.533v-0.533l0.533-0.533c0.159-0.058 0.342-0.091 0.533-0.091s0.375 0.034 0.544 0.095l-0.011-0.004c0.080-0.021 0.172-0.034 0.267-0.034s0.187 0.012 0.274 0.036l-0.007-0.002h-0.533c-0.080-0.021-0.172-0.034-0.267-0.034s-0.187 0.012-0.274 0.036l0.007-0.002h-0.533v1.6c0.077 0.045 0.168 0.071 0.267 0.071s0.19-0.027 0.269-0.073l-0.003 0.001zM36.8 18.667h-0.533v-1.6h0.533v1.6zM38.933 18.667h-0.533v-1.6h0.533v1.6zM40 17.067l1.067 1.067v-1.067h0.533v1.6h-0.533l-1.067-1.6v1.6h-0.533v-1.6h0.533zM43.733 17.067h-1.067v0.533h1.067v0.533h-1.067v0.533h-0.533v-1.6h1.6zM11.2 4.8l13.867 3.2v11.733l-13.867-3.2v-11.733zM10.667 3.733v13.333l15.467 3.733v-13.333l-15.467-3.733z"></path>
<path  d="M18.667 27.2l-15.467-3.733v-13.867l15.467 4.267v13.333z"></path>
<path  d="M10.667 4.267l13.333 3.733-5.333 4.8-13.867-3.2 5.867-5.333zM10.667 3.733l-7.467 5.867 15.467 4.267 7.467-6.4-15.467-3.733zM19.733 26.133l6.4-5.333-6.4-1.6v6.933z"></path>
</symbol>
<symbol id="icon-instagram" viewBox="0 0 32 32">
<path  d="M31.968 9.408c-0.074-1.701-0.349-2.869-0.742-3.882-0.424-1.111-1.054-2.059-1.85-2.837l-0.001-0.001c-0.78-0.792-1.724-1.419-2.778-1.827l-0.054-0.018c-1.019-0.394-2.181-0.667-3.882-0.742-1.712-0.082-2.256-0.101-6.602-0.101-4.344 0-4.888 0.019-6.595 0.094-1.699 0.074-2.869 0.349-3.88 0.742-1.112 0.424-2.060 1.054-2.839 1.85l-0.001 0.001c-0.791 0.78-1.418 1.724-1.825 2.778l-0.018 0.054c-0.395 1.019-0.669 2.181-0.744 3.882-0.082 1.712-0.101 2.256-0.101 6.602 0 4.344 0.019 4.888 0.094 6.595 0.075 1.701 0.35 2.869 0.744 3.882 0.426 1.11 1.055 2.057 1.849 2.837l0.001 0.001c0.8 0.813 1.77 1.443 2.832 1.843 1.019 0.395 2.182 0.67 3.882 0.744 1.707 0.075 2.251 0.094 6.595 0.094 4.346 0 4.89-0.019 6.595-0.094 1.701-0.074 2.869-0.349 3.882-0.742 2.157-0.85 3.833-2.526 4.664-4.628l0.019-0.055c0.394-1.019 0.669-2.182 0.744-3.882 0.075-1.707 0.093-2.251 0.093-6.595s-0.006-4.888-0.080-6.595zM29.088 22.474c-0.070 1.563-0.333 2.406-0.55 2.97-0.552 1.399-1.64 2.486-3.004 3.024l-0.036 0.012c-0.56 0.219-1.411 0.482-2.968 0.55-1.688 0.075-2.194 0.094-6.464 0.094-4.269 0-4.782-0.019-6.464-0.094-1.563-0.069-2.406-0.331-2.97-0.55-0.721-0.269-1.334-0.676-1.836-1.192l-0.001-0.001c-0.517-0.503-0.924-1.117-1.184-1.803l-0.011-0.034c-0.218-0.563-0.48-1.413-0.549-2.97-0.075-1.688-0.094-2.195-0.094-6.464 0-4.27 0.019-4.784 0.094-6.464 0.069-1.563 0.331-2.406 0.549-2.97 0.269-0.722 0.678-1.337 1.198-1.837l0.002-0.002c0.504-0.517 1.119-0.923 1.806-1.182l0.034-0.011c0.56-0.219 1.411-0.48 2.968-0.55 1.688-0.074 2.195-0.093 6.464-0.093 4.275 0 4.782 0.019 6.464 0.093 1.563 0.069 2.406 0.331 2.97 0.55 0.693 0.256 1.325 0.662 1.837 1.194 0.531 0.52 0.938 1.144 1.195 1.84 0.218 0.56 0.48 1.411 0.549 2.968 0.075 1.688 0.094 2.194 0.094 6.464 0 4.269-0.019 4.768-0.094 6.458z"></path>
<path d="M16.059 7.782c-4.539 0.002-8.218 3.682-8.219 8.221v0c0.091 4.471 3.737 8.060 8.221 8.060s8.13-3.589 8.221-8.052l0-0.009c-0.001-4.54-3.681-8.22-8.221-8.221h-0zM16.059 21.334c-2.945-0-5.332-2.388-5.332-5.333s2.388-5.333 5.333-5.333c0 0 0.001 0 0.001 0h-0c2.946 0 5.334 2.388 5.334 5.334s-2.388 5.334-5.334 5.334v0zM26.525 7.458c0 1.060-0.86 1.92-1.92 1.92s-1.92-0.86-1.92-1.92v0c0-1.060 0.86-1.92 1.92-1.92s1.92 0.86 1.92 1.92v0z"></path>
</symbol>
<symbol id="icon-twitter" viewBox="0 0 32 32">
<path  d="M32 6.078c-1.1 0.493-2.376 0.857-3.713 1.028l-0.068 0.007c1.36-0.817 2.382-2.078 2.873-3.579l0.013-0.046c-1.198 0.722-2.591 1.273-4.076 1.573l-0.084 0.014c-1.2-1.279-2.9-2.076-4.787-2.076-3.622 0-6.558 2.936-6.558 6.558 0 0.001 0 0.003 0 0.004v-0c0 0.52 0.043 1.021 0.152 1.496-5.454-0.266-10.28-2.88-13.522-6.861-0.564 0.949-0.899 2.092-0.902 3.313v0.001c0 2.272 1.171 4.286 2.914 5.451-1.091-0.030-2.107-0.325-2.994-0.823l0.033 0.017v0.072c0.003 3.165 2.236 5.807 5.213 6.44l0.043 0.008c-0.499 0.136-1.071 0.215-1.662 0.215-0.020 0-0.041-0-0.061-0l0.003 0c-0.419 0-0.843-0.024-1.242-0.112 0.85 2.598 3.261 4.509 6.13 4.57-2.215 1.746-5.046 2.8-8.123 2.8-0.004 0-0.008 0-0.012 0h0.001c-0.538 0-1.053-0.026-1.57-0.091 2.827 1.846 6.287 2.944 10.004 2.944 0.021 0 0.042-0 0.063-0h-0.003c12.072 0 18.672-10 18.672-18.669 0-0.288-0.010-0.57-0.024-0.848 1.299-0.936 2.391-2.065 3.258-3.356l0.030-0.047z"></path>
</symbol>
<symbol id="icon-facebook" viewBox="0 0 32 32">
<path  d="M21.328 5.312h2.923v-5.088c-1.232-0.143-2.66-0.224-4.107-0.224-0.052 0-0.104 0-0.157 0l0.008-0c-4.213 0-7.099 2.65-7.099 7.52v4.48h-4.646v5.688h4.646v14.312h5.699v-14.31h4.459l0.709-5.688h-5.17v-3.922c0-1.643 0.443-2.768 2.734-2.768z"></path>
</symbol>
<symbol id="icon-linkedin" viewBox="0 0 32 32">
<path  d="M31.992 32h0.008v-11.738c0-5.741-1.235-10.163-7.947-10.163-3.227 0-5.392 1.77-6.277 3.45h-0.093v-2.914h-6.365v21.363h6.627v-10.578c0-2.786 0.528-5.48 3.978-5.48 3.398 0 3.45 3.179 3.45 5.658v10.402h6.619zM0.528 10.635h6.635v21.365h-6.635v-21.365zM3.843 0c-2.123 0-3.843 1.721-3.843 3.843v0c0 2.12 1.722 3.878 3.843 3.878 2.12 0 3.842-1.757 3.842-3.878s-1.72-3.841-3.841-3.843h-0z"></path>
</symbol>
<symbol id="icon-close" viewBox="0 0 18 18">
<path d="M15 4.10786L13.8921 3L9.5 7.39214L5.10786 3L4 4.10786L8.39214 8.5L4 12.8921L5.10786 14L9.5 9.60786L13.8921 14L15 12.8921L10.6079 8.5L15 4.10786Z" />
</symbol>

<symbol id="icon-send" viewBox="0 0 24 24">
<path d="M24 0 0 14l8 2L20 5l-9 12v7l4-5 5 2 4-21Z" fill="#fff"/>
</symbol>

<symbol id="icon-check" viewBox="0 0 13 10">
<path d="M1.95703 4.75166L1.88825 4.68604L1.81923 4.75141L0.93123 5.59258L0.854858 5.66492L0.930974 5.73753L4.42671 9.07236L4.49574 9.1382L4.56476 9.07236L12.069 1.91352L12.1449 1.84116L12.069 1.76881L11.1873 0.927644L11.1183 0.861826L11.0493 0.927611L4.49577 7.17353L1.95703 4.75166Z" fill="white" stroke="white" stroke-width="0.2"/>
</symbol>

<symbol id="icon-phone" viewBox="0 0 18 18">
<path d="M13.996 11.1226L12.1579 10.9127C11.7164 10.862 11.2822 11.014 10.971 11.3252L9.63945 12.6568C7.59144 11.6147 5.91251 9.94296 4.87041 7.8877L6.20922 6.54888C6.5204 6.2377 6.67237 5.80349 6.62171 5.36205L6.41185 3.53836C6.325 2.80745 5.70988 2.25745 4.97173 2.25745H3.71976C2.902 2.25745 2.22175 2.93771 2.2724 3.75547C2.65595 9.93572 7.59868 14.8712 13.7717 15.2548C14.5894 15.3054 15.2697 14.6252 15.2697 13.8074V12.5555C15.2769 11.8245 14.7269 11.2094 13.996 11.1226Z" />
</symbol>

<symbol id="icon-name"  viewBox="0 0 18 18">
<path d="M9 9C10.6575 9 12 7.6575 12 6C12 4.3425 10.6575 3 9 3C7.3425 3 6 4.3425 6 6C6 7.6575 7.3425 9 9 9ZM9 10.5C6.9975 10.5 3 11.505 3 13.5V14.25C3 14.6625 3.3375 15 3.75 15H14.25C14.6625 15 15 14.6625 15 14.25V13.5C15 11.505 11.0025 10.5 9 10.5Z" />
</symbol>

<symbol id="icon-mail"  viewBox="0 0 18 18">
<path d="M15 3H3C2.175 3 1.5075 3.675 1.5075 4.5L1.5 13.5C1.5 14.325 2.175 15 3 15H15C15.825 15 16.5 14.325 16.5 13.5V4.5C16.5 3.675 15.825 3 15 3ZM14.7 6.1875L9.3975 9.5025C9.1575 9.6525 8.8425 9.6525 8.6025 9.5025L3.3 6.1875C3.1125 6.0675 3 5.865 3 5.6475C3 5.145 3.5475 4.845 3.975 5.1075L9 8.25L14.025 5.1075C14.4525 4.845 15 5.145 15 5.6475C15 5.865 14.8875 6.0675 14.7 6.1875Z" />
</symbol>
</defs>
</svg>




